<svg xmlns="http://www.w3.org/2000/svg" xmlns:xlink="http://www.w3.org/1999/xlink" width="1000" zoomAndPan="magnify" viewBox="0 0 750 749.999995" height="1000" preserveAspectRatio="xMidYMid meet" version="1.0"><defs><g/><clipPath id="7f6022ab6b"><path d="M 375 0 C 167.894531 0 0 167.894531 0 375 C 0 582.105469 167.894531 750 375 750 C 582.105469 750 750 582.105469 750 375 C 750 167.894531 582.105469 0 375 0 Z M 375 0 " clip-rule="nonzero"/></clipPath><clipPath id="3d105654dd"><path d="M 0 0 L 750 0 L 750 750 L 0 750 Z M 0 0 " clip-rule="nonzero"/></clipPath><clipPath id="342bcdca6f"><path d="M 375 0 C 167.894531 0 0 167.894531 0 375 C 0 582.105469 167.894531 750 375 750 C 582.105469 750 750 582.105469 750 375 C 750 167.894531 582.105469 0 375 0 Z M 375 0 " clip-rule="nonzero"/></clipPath><clipPath id="b2d022122a"><rect x="0" width="750" y="0" height="750"/></clipPath><clipPath id="514473c642"><rect x="0" width="616" y="0" height="545"/></clipPath></defs><g clip-path="url(#7f6022ab6b)"><g transform="matrix(1, 0, 0, 1, 0, -0.000000000000042435)"><g clip-path="url(#b2d022122a)"><g clip-path="url(#3d105654dd)"><g clip-path="url(#342bcdca6f)"><rect x="-165" width="1080" fill="#000000" height="1079.999992" y="-164.999999" fill-opacity="1"/></g></g></g></g></g><g transform="matrix(1, 0, 0, 1, 60, 152)"><g clip-path="url(#514473c642)"><g fill="#ffffff" fill-opacity="1"><g transform="translate(0.260548, 408.043727)"><g><path d="M 25.5 -24.953125 L 35.265625 -106.34375 C 50.097656 -95.851562 64.835938 -88.347656 79.484375 -83.828125 C 94.128906 -79.304688 107.421875 -76.679688 119.359375 -75.953125 C 131.296875 -75.234375 140.160156 -75.054688 145.953125 -75.421875 C 157.523438 -76.140625 167.378906 -80.207031 175.515625 -87.625 C 183.660156 -95.039062 187.1875 -103.992188 186.09375 -114.484375 C 185.375 -125.691406 181.210938 -134.1875 173.609375 -139.96875 C 166.015625 -145.757812 156.796875 -150.46875 145.953125 -154.09375 C 125.691406 -161.6875 106.789062 -170.457031 89.25 -180.40625 C 71.707031 -190.351562 57.597656 -202.738281 46.921875 -217.5625 C 36.253906 -232.394531 30.921875 -250.660156 30.921875 -272.359375 C 30.921875 -294.066406 35.53125 -313.691406 44.75 -331.234375 C 53.976562 -348.773438 66.910156 -362.789062 83.546875 -373.28125 C 100.191406 -383.769531 119.1875 -389.554688 140.53125 -390.640625 C 150.65625 -391.367188 163.039062 -391.007812 177.6875 -389.5625 C 192.332031 -388.113281 212.132812 -383.050781 237.09375 -374.375 L 227.328125 -299.5 C 205.992188 -308.175781 188.992188 -313.144531 176.328125 -314.40625 C 163.671875 -315.675781 154.269531 -316.128906 148.125 -315.765625 C 134.375 -315.046875 124.332031 -310.34375 118 -301.65625 C 111.675781 -292.976562 108.875 -283.210938 109.59375 -272.359375 C 110.675781 -261.515625 115.378906 -253.285156 123.703125 -247.671875 C 132.023438 -242.066406 141.789062 -237.273438 153 -233.296875 C 173.257812 -226.066406 191.890625 -217.113281 208.890625 -206.4375 C 225.890625 -195.769531 239.539062 -182.929688 249.84375 -167.921875 C 260.15625 -152.910156 265.3125 -135.097656 265.3125 -114.484375 C 265.3125 -93.140625 260.609375 -73.785156 251.203125 -56.421875 C 241.796875 -39.066406 228.320312 -25.144531 210.78125 -14.65625 C 193.238281 -4.164062 172.351562 1.800781 148.125 3.25 C 140.882812 3.613281 131.023438 3.34375 118.546875 2.4375 C 106.066406 1.53125 91.867188 -1 75.953125 -5.15625 C 60.046875 -9.3125 43.226562 -15.910156 25.5 -24.953125 Z M 25.5 -24.953125 "/></g></g></g><g fill="#ffffff" fill-opacity="1"><g transform="translate(287.279517, 408.043727)"><g><path d="M 43.40625 0 L 43.40625 -387.9375 L 120.984375 -387.9375 L 120.984375 -233.296875 L 218.65625 -387.9375 L 309.265625 -387.9375 L 183.390625 -196.40625 L 320.109375 0 L 224.078125 0 L 120.984375 -151.921875 L 120.984375 0 Z M 43.40625 0 "/></g></g></g></g></g></svg>